<mxfile host="app.diagrams.net" modified="2024-07-22T06:43:48.550Z" agent="Mozilla/5.0 (Windows NT 10.0; Win64; x64) AppleWebKit/537.36 (KHTML, like Gecko) Chrome/126.0.0.0 Safari/537.36" etag="izbgm5qjyAajVAgfFrDE" version="24.7.1" type="github">
  <diagram name="Halaman-1" id="f7XQAQjgaxRk4_6OhgAi">
    <mxGraphModel dx="1194" dy="462" grid="0" gridSize="10" guides="1" tooltips="1" connect="1" arrows="1" fold="1" page="0" pageScale="1" pageWidth="827" pageHeight="1169" math="0" shadow="0">
      <root>
        <mxCell id="0" />
        <mxCell id="1" parent="0" />
        <mxCell id="0iV_4RcjQAkIctbCJ_T2-1" value="" style="rounded=0;whiteSpace=wrap;html=1;" vertex="1" parent="1">
          <mxGeometry x="-110" y="28" width="628" height="379" as="geometry" />
        </mxCell>
        <mxCell id="0iV_4RcjQAkIctbCJ_T2-2" value="" style="rounded=0;whiteSpace=wrap;html=1;" vertex="1" parent="1">
          <mxGeometry x="-110" y="28" width="628" height="45" as="geometry" />
        </mxCell>
        <mxCell id="0iV_4RcjQAkIctbCJ_T2-4" value="Login" style="rounded=1;whiteSpace=wrap;html=1;" vertex="1" parent="1">
          <mxGeometry x="428" y="40" width="67" height="21" as="geometry" />
        </mxCell>
        <mxCell id="0iV_4RcjQAkIctbCJ_T2-6" value="&lt;font style=&quot;font-size: 35px;&quot;&gt;Content&lt;/font&gt;" style="text;html=1;align=center;verticalAlign=middle;whiteSpace=wrap;rounded=0;fontSize=16;fontColor=#808080;" vertex="1" parent="1">
          <mxGeometry x="87" y="186" width="241" height="80" as="geometry" />
        </mxCell>
      </root>
    </mxGraphModel>
  </diagram>
</mxfile>
